<svg width="91" height="81" viewBox="0 0 91 81" fill="none" xmlns="http://www.w3.org/2000/svg">
<g clip-path="url(#clip0_215_9482)">
<path d="M84.0755 15.8962H80.1511C79.8596 15.8962 79.6179 16.1051 79.6179 16.3708V79.823C79.6179 80.0824 79.8525 80.2976 80.1511 80.2976H84.0755C84.367 80.2976 84.6087 80.0824 84.6087 79.823V16.3708C84.6087 16.1051 84.367 15.8962 84.0755 15.8962ZM63.9488 43.2148H60.0245C59.917 43.2148 59.8139 43.2528 59.7379 43.3204C59.6619 43.388 59.6192 43.4798 59.6192 43.5755V79.8293C59.6192 80.0255 59.8041 80.1837 60.0245 80.1837H63.9488C64.1763 80.1837 64.347 80.0255 64.347 79.8293V43.5755C64.3489 43.5282 64.34 43.481 64.3208 43.4369C64.3015 43.3928 64.2724 43.3526 64.2351 43.3188C64.1979 43.2851 64.1533 43.2584 64.104 43.2405C64.0548 43.2226 64.002 43.2139 63.9488 43.2148ZM44.4265 64.7114H40.5021C40.3599 64.7114 40.2462 64.8127 40.2462 64.9392V79.8166C40.2462 79.9432 40.3599 80.0444 40.5021 80.0444H44.4265C44.5687 80.0444 44.6895 79.9432 44.6895 79.8166V64.9392C44.6895 64.819 44.5687 64.7114 44.4265 64.7114Z" fill="#006CA2"/>
<path d="M89.7772 0.291107H83.7484C83.5138 0.291107 83.3076 0.430326 83.2437 0.626498C83.1015 1.04415 68.2287 42.949 8.48148 79.8483C8.38709 79.9051 8.31595 79.9876 8.27878 80.0835C8.2416 80.1793 8.24038 80.2833 8.27531 80.3799C8.34641 80.576 8.55258 80.7089 8.78008 80.7089H28.4162C28.5512 80.7089 28.6792 80.6646 28.7716 80.5887C80.1937 39.5571 90.2037 3.33494 90.3104 2.86665V0.765717C90.3104 0.499935 90.0758 0.291107 89.7772 0.291107Z" fill="#006CA2"/>
<path d="M72.7431 2.99954C72.7573 2.95525 72.7645 2.91095 72.7645 2.86665V0.765717C72.7645 0.506263 72.5298 0.291107 72.2313 0.291107H67.2334C67.013 0.291107 66.821 0.411342 66.7357 0.588529C66.5935 0.911263 51.8842 33.1024 0.917109 63.7052C0.774922 63.7938 0.6825 63.9394 0.6825 64.0976V71.9761C0.6825 72.1533 0.789141 72.3115 0.966875 72.3938C1.05168 72.4354 1.1479 72.4552 1.24465 72.4507C1.34139 72.4462 1.4348 72.4177 1.5143 72.3685C61.553 35.6717 72.6365 3.32228 72.7431 2.99954Z" fill="#006CA2"/>
<path d="M34.6511 9.90986C34.5672 9.86419 34.4674 9.84736 34.3706 9.8625C34.2737 9.87765 34.1864 9.92374 34.125 9.99212C20.411 25.5277 1.30102 30.6598 1.10906 30.7104C0.938438 30.7547 0.817578 30.8939 0.817578 31.0521V37.9941C0.817578 38.1206 0.888672 38.2345 1.00953 38.2978C1.07352 38.3295 1.15172 38.3484 1.22281 38.3484C1.27969 38.3484 1.35078 38.3358 1.40766 38.3105C26.198 26.8566 34.7293 10.5237 34.8075 10.3592C34.8928 10.1946 34.8288 9.99845 34.6511 9.90986ZM1.22281 25.4138C1.25836 25.4138 1.30813 25.4074 1.34367 25.3948C21.712 18.8325 27.4991 8.92267 27.5488 8.82775C27.627 8.69486 27.5844 8.53033 27.4493 8.4354C27.3853 8.39022 27.3057 8.36617 27.2241 8.36732C27.1424 8.36847 27.0637 8.39477 27.0014 8.44173C13.8704 18.3389 1.29391 20.1298 1.16594 20.1488C0.988203 20.1741 0.860235 20.307 0.860235 20.4652V25.0974C0.860235 25.1986 0.924219 25.2999 1.01664 25.3568C1.08063 25.3948 1.15172 25.4138 1.22281 25.4138Z" fill="#40C0E7"/>
<path d="M74.101 15.9975C73.7242 14.5863 72.8284 13.0233 71.7336 11.9475C68.3638 8.63155 60.06 8.91631 55.446 9.06819C54.5289 9.09983 53.5905 9.16311 52.6947 9.36561C51.607 9.60608 50.4837 9.93514 49.5097 10.4287C49.1542 10.6123 48.7845 10.8084 48.4433 11.0299C48.3153 11.0805 48.1802 11.1122 48.0523 11.1691C47.2134 11.5488 46.4171 12.0108 45.692 12.5423C41.6254 15.5482 38.4048 21.9649 41.5756 26.3376C44.0639 29.7738 49.2466 30.3054 53.4056 30.7104C57.3371 31.0901 63.5507 33.0518 66.9916 30.6787C71.2999 27.7108 75.402 20.8638 74.101 15.9975Z" fill="#ED6C30"/>
<path d="M62.3777 32.4633C60.3941 32.4633 58.2613 32.1026 56.3773 31.7862C55.2754 31.6026 54.2374 31.4255 53.3345 31.3369C49.2609 30.9445 43.68 30.4003 40.9855 26.6794C37.4522 21.8067 41.1846 15.0546 45.2512 12.0551C46.0119 11.4919 46.8508 11.0046 47.7395 10.6059C47.8461 10.5553 47.9527 10.5237 48.0665 10.4857C48.3935 10.2832 48.7916 10.068 49.1684 9.8782C50.0784 9.41624 51.1804 9.04921 52.5383 8.75179C53.562 8.52398 54.6213 8.46703 55.4389 8.43538C56.5551 8.39742 57.8845 8.35312 59.3135 8.35312C65.8684 8.35312 70.1127 9.39093 72.281 11.5235C73.4327 12.6562 74.3996 14.3142 74.812 15.8519C76.1698 20.9587 72.018 28.0273 67.4466 31.1787C66.1741 32.0393 64.5176 32.4633 62.3777 32.4633ZM59.2993 9.61242C57.8916 9.61242 56.5764 9.65671 55.4816 9.69468C54.7351 9.71999 53.7682 9.77062 52.8653 9.97312C51.6354 10.2452 50.6543 10.5743 49.858 10.973C49.5239 11.1438 49.1827 11.3273 48.8627 11.5362L48.5428 11.6691C48.4859 11.688 48.4291 11.707 48.3722 11.7323C47.5759 12.093 46.8295 12.5297 46.147 13.0296C42.5923 15.6621 39.1229 21.7941 42.1728 25.9959C44.4976 29.2106 49.4813 29.6916 53.4838 30.0839C54.4365 30.1788 55.51 30.356 56.6404 30.5459C58.4604 30.8559 60.5292 31.1976 62.3706 31.1976H62.3777C64.1977 31.1976 65.5627 30.8623 66.558 30.1788C70.7809 27.2679 74.6129 20.6423 73.4114 16.1367C73.0488 14.7952 72.2099 13.346 71.2146 12.3588C69.3306 10.511 65.4347 9.61242 59.2993 9.61242Z" fill="#ED6C30"/>
<path d="M46.8223 13.8776L46.7584 13.9725C45.5498 15.8013 44.5971 18.0415 47.1067 19.3514C49.1187 20.4019 51.6496 20.4905 53.9104 20.636C55.4318 20.7373 56.9532 20.9018 58.4888 20.9524C60.0884 21.003 61.5316 20.7436 63.1028 20.5791C67.4253 20.1234 70.3544 13.5359 65.0223 12.3335C62.9962 11.8779 60.9487 11.4602 58.8727 11.2324C57.8774 11.1248 56.8821 11.1059 55.8797 11.0552C55.0337 11.0109 54.1805 10.7831 53.3345 10.8717C52.5809 10.954 51.7634 11.1185 51.0311 11.3084C49.3817 11.7387 47.7323 12.5866 46.8223 13.8776Z" fill="#2F2F2F"/>
<path d="M62.7473 32.3367C62.5909 30.8939 61.9511 29.2359 61.0269 28.0336C59.4486 25.9706 54.1592 24.7746 51.3723 24.4076C49.9718 24.2241 48.5784 23.9709 47.1636 23.8127C44.2203 23.49 41.2202 23.3445 38.2555 23.6482C37.182 23.7558 36.137 24.1481 35.1274 24.724C31.267 26.9452 28.1176 32.0203 27.0441 35.1717C26.0416 38.1206 25.7146 41.7466 27.9612 44.3285C29.4684 46.0624 31.8358 46.8408 34.1819 47.2268C39.1087 48.0368 44.917 49.0809 49.922 48.2836C53.9744 47.6381 56.1072 44.1893 58.5173 41.5695C61.0198 38.8547 63.1455 36.0134 62.7473 32.3367Z" fill="#ED6C30"/>
<path d="M46.0048 49.2012C42.2368 49.2012 38.284 48.5494 34.7933 47.9672L34.061 47.847C30.9755 47.3407 28.8001 46.3155 27.4066 44.7145C24.6909 41.5948 25.5937 37.2853 26.3758 34.9882C27.3498 32.1216 30.485 26.6541 34.7506 24.1924C35.9023 23.528 37.0541 23.1356 38.1845 23.0217C40.8362 22.7496 43.7227 22.8002 47.256 23.1862C48.1162 23.2812 48.9623 23.4077 49.8154 23.5343C50.377 23.6166 50.9316 23.7052 51.4861 23.7748C52.3037 23.8823 59.5126 24.9075 61.6312 27.6666C62.598 28.9322 63.2948 30.6914 63.4654 32.2608C63.9062 36.3298 61.4321 39.3926 59.086 41.9491C58.6452 42.4301 58.2116 42.9427 57.7708 43.4552C55.837 45.7334 53.6402 48.3152 50.0713 48.8848C48.8059 49.1062 47.4835 49.2012 46.0048 49.2012ZM41.6538 24.1165C40.5021 24.1165 39.3859 24.1734 38.3409 24.281C37.4309 24.3759 36.4782 24.705 35.5184 25.2555C31.786 27.4071 28.7148 32.457 27.7337 35.3552C27.0369 37.4182 26.2052 41.272 28.537 43.9488C29.6959 45.2904 31.5941 46.1637 34.3241 46.613L35.0563 46.7332C38.483 47.3027 42.3719 47.9419 46.0048 47.9419C47.3982 47.9419 48.6423 47.8533 49.8083 47.6634C52.8298 47.1825 54.7635 44.9107 56.6262 42.7148C57.0741 42.1896 57.522 41.6644 57.977 41.1708C60.1453 38.8104 62.4274 35.988 62.0435 32.4C61.9013 31.0268 61.2899 29.4891 60.451 28.3943C59.1927 26.7553 54.8133 25.5087 51.2728 25.0341C50.7041 24.9581 50.1353 24.8759 49.5666 24.7873C48.7419 24.6607 47.9101 24.5341 47.0712 24.4455C45.0663 24.2241 43.2961 24.1165 41.6538 24.1165Z" fill="#ED6C30"/>
<path d="M35.5895 27.6159C35.5682 27.6476 35.5469 27.6792 35.5327 27.7045C34.3596 29.4448 33.4354 31.6216 35.8668 33.1024C37.8148 34.2921 40.2675 34.5579 42.4572 34.868C43.9359 35.0768 45.4076 35.3489 46.8863 35.5071C48.4362 35.6716 49.8296 35.5134 51.351 35.4565C55.5384 35.3109 58.368 28.9258 53.2137 27.3501C51.2515 26.7553 49.268 26.1921 47.2631 25.8187C46.2963 25.6416 45.3365 25.553 44.3625 25.4327C43.5449 25.3251 42.7202 25.0404 41.8955 25.072C41.1633 25.1037 40.3741 25.2049 39.6703 25.3441C38.0778 25.6605 36.4782 26.3883 35.5895 27.6159Z" fill="#2F2F2F"/>
<path d="M49.8438 47.6445C49.7798 46.0751 49.1898 44.2336 48.2727 42.8731C45.4787 38.7471 36.6346 38.437 31.8713 37.6587C28.4802 37.1018 25.0748 36.7791 21.8045 38.032C17.7663 39.5888 14.8302 42.7402 12.5907 46.0181C11.5527 47.5369 10.6427 49.1506 10.1309 50.8718C9.22797 53.903 8.74453 57.2442 11.1191 59.8577C13.2732 62.2371 16.8066 63.2813 20.0342 63.971C23.8377 64.781 28.1176 66.0656 32.0704 65.667C35.7673 65.2999 38.8314 63.4078 41.2486 61.0095C43.6302 58.6427 46.4171 56.1558 48.1731 53.3777C49.2182 51.7324 49.9291 49.5619 49.8438 47.6445Z" fill="#ED6C30"/>
<path d="M30.5419 66.3757C27.6981 66.3757 24.8259 65.7113 22.0391 65.0721C21.2997 64.9013 20.5745 64.7367 19.8707 64.5848C16.5791 63.8761 12.8893 62.813 10.5716 60.2564C7.92695 57.3391 8.58813 53.6245 9.44836 50.7136C9.91758 49.1379 10.728 47.5432 11.9864 45.6891C14.8302 41.5252 17.9512 38.8294 21.5201 37.4498C23.1339 36.8297 24.8757 36.5259 26.8592 36.5259C28.6863 36.5259 30.4779 36.7791 31.9922 37.0322C32.8311 37.1714 33.798 37.2916 34.843 37.4245C39.7201 38.0447 46.4029 38.8927 48.8698 42.544C49.8296 43.9615 50.4695 45.9042 50.5405 47.6191C50.6259 49.5429 49.9647 51.8084 48.7845 53.6878C47.2916 56.0482 45.1303 58.1555 43.033 60.1931C42.6065 60.6108 42.1799 61.0221 41.7747 61.4334C38.8741 64.3127 35.6322 65.9454 32.1486 66.2934C31.6225 66.3504 31.0822 66.3757 30.5419 66.3757ZM26.8663 37.7916C25.0819 37.7916 23.5178 38.0573 22.0888 38.6079C18.7901 39.8735 15.8895 42.4111 13.2021 46.3472C12.0077 48.0938 11.2541 49.5872 10.8205 51.0363C9.99578 53.8207 9.44125 57.0038 11.6736 59.4654C13.7282 61.7309 17.1336 62.7054 20.2048 63.3572C20.9158 63.5091 21.6552 63.6799 22.3945 63.8508C25.089 64.4709 27.8759 65.1164 30.5348 65.1164C31.0253 65.1164 31.5088 65.0974 31.9922 65.0468C35.1203 64.7367 38.0565 63.237 40.7225 60.5981C41.1348 60.1868 41.5614 59.7691 41.9951 59.3515C44.0355 57.3645 46.147 55.3141 47.5546 53.0803C48.5997 51.4223 49.204 49.353 49.1329 47.6761C49.0689 46.1637 48.5073 44.4488 47.6613 43.2084C45.5427 40.076 39.2509 39.2723 34.6511 38.6902C33.5847 38.5573 32.5965 38.4307 31.7362 38.2852C30.293 38.0384 28.5797 37.7916 26.8663 37.7916Z" fill="#ED6C30"/>
<path d="M20.475 41.1012C20.4537 41.1391 20.4323 41.1644 20.411 41.2024C19.2877 42.9363 18.4275 45.0626 20.7167 46.6573C22.5936 47.9672 25.0321 48.4101 27.2787 48.8784C28.8285 49.2075 30.4139 49.6125 32.0348 49.8973C33.7695 50.201 35.3834 50.1567 37.1678 50.239C42.3079 50.4478 46.474 43.1768 39.8552 41.1708C37.4593 40.4494 35.1132 39.7723 32.7884 39.3419C31.6936 39.1394 30.613 39.0382 29.5395 38.899C28.6508 38.7787 27.7621 38.4687 26.8877 38.5003C26.1127 38.5383 25.288 38.6458 24.5558 38.7914C22.9348 39.1015 21.3352 39.8482 20.475 41.1012Z" fill="#2F2F2F"/>
<path d="M12.9106 54.2763C13.8135 53.3081 15.7828 53.1752 16.6359 54.2257C17.2616 54.9977 17.3966 55.928 16.7995 56.738C16.3302 57.3771 15.6051 58.0289 14.6809 57.972C12.7329 57.8581 11.7091 55.5673 12.9106 54.2763ZM26.781 57.9846C27.7977 56.8835 30.0229 56.738 30.9898 57.9277C31.6936 58.8009 31.8429 59.8577 31.1746 60.7753C30.6556 61.4967 29.8238 62.2308 28.7787 62.1738C26.5748 62.0346 25.4231 59.4464 26.781 57.9846Z" fill="white"/>
<path d="M53.1497 30.1535C52.9577 29.5966 52.652 29.0524 52.652 28.4133C52.652 27.7045 53.2421 27.1223 53.2705 26.4073C53.2919 25.9137 53.3345 25.4644 53.1995 25.0024C52.4672 22.4142 48.8698 22.4522 47.6755 24.6101C47.0712 25.7048 47.4409 26.5401 47.8034 27.6223C48.0167 28.2424 48.0096 28.717 47.647 29.2423C47.2773 29.7801 46.8579 30.2864 46.6304 30.9129C46.3816 31.5963 45.8981 32.381 46.6304 32.8366C47.6257 33.4631 48.8272 33.4568 49.9434 33.6213C50.4979 33.7036 51.0951 33.7922 51.5785 33.4188C52.1899 32.9442 52.8227 32.3114 53.1497 31.571C53.3772 31.0521 53.299 30.6028 53.1497 30.1535ZM44.4407 22.9331C44.4194 22.8445 44.398 22.7496 44.3696 22.661C44.0568 21.5662 43.0899 20.8575 41.9951 20.7942C40.8647 20.7309 39.5068 21.0853 38.7888 22.0345C38.2058 22.8002 38.092 23.9393 38.3693 24.8505C38.6252 25.6859 39.2935 26.3376 38.6963 27.2236C38.1489 28.0399 37.3811 28.9701 37.3598 30.0206C37.3313 31.4824 40.6941 31.7102 41.7249 31.7862C42.6136 31.8494 43.5165 30.8686 43.9359 30.1725C44.7535 28.8056 44.0355 28.5905 43.6018 27.3628C43.3956 26.7806 43.7369 25.8124 43.9928 25.2935C44.3696 24.5025 44.6042 23.7811 44.4407 22.9331ZM39.8409 44.7588C39.6561 44.1387 39.3291 43.5248 39.3646 42.8224C39.4144 42.0504 40.1324 41.4492 40.2106 40.6645C40.2604 40.133 40.3386 39.6394 40.2106 39.1205C39.521 36.2348 35.3123 36.045 33.7909 38.3294C33.0159 39.4938 33.407 40.4304 33.7553 41.6391C33.9615 42.3288 33.933 42.854 33.4709 43.4046C33.0088 43.9678 32.4827 44.4994 32.177 45.1701C31.8429 45.9042 31.2315 46.7332 32.0562 47.2837C33.1795 48.0305 34.5871 48.1064 35.8739 48.3595C36.5209 48.4861 37.2105 48.6253 37.8005 48.2456C38.547 47.7647 39.3148 47.1129 39.7485 46.3219C40.0471 45.7587 39.9902 45.2587 39.8409 44.7588ZM30.5988 36.2475C30.5845 36.1462 30.5703 36.045 30.5419 35.9374C30.2717 34.7034 29.2551 33.8555 28.0607 33.7162C26.8379 33.577 25.3378 33.8744 24.4989 34.8869C23.8164 35.7033 23.6245 36.9499 23.8733 37.9877C24.1008 38.9306 24.7833 39.6963 24.0866 40.6329C23.4396 41.5062 22.5509 42.4934 22.4656 43.6514C22.3448 45.2651 25.9919 45.7397 27.1009 45.8852C28.0678 46.0055 29.1058 44.9803 29.6034 44.2336C30.5703 42.7718 29.8025 42.487 29.4115 41.0948C29.2266 40.4367 29.6461 39.3862 29.9518 38.823C30.421 37.9814 30.7196 37.1904 30.5988 36.2475ZM64.6527 14.928C64.3612 14.4028 63.9346 13.9092 63.8422 13.2764C63.7427 12.574 64.3043 11.9159 64.2332 11.1944C64.1834 10.7072 64.1621 10.2579 63.9417 9.81491C62.7473 7.3596 58.7448 7.91648 57.7352 10.2389C57.2234 11.4096 57.7637 12.1816 58.3182 13.2005C58.6381 13.7826 58.7092 14.2573 58.3751 14.8331C58.048 15.4153 57.6499 15.9785 57.4864 16.6366C57.3016 17.3454 56.8821 18.1997 57.7708 18.5414C58.9723 19.016 60.3088 18.8388 61.5743 18.8388C62.207 18.8388 62.8824 18.8388 63.3659 18.3959C63.9844 17.8326 64.5887 17.1176 64.8446 16.3329C65.0295 15.7887 64.8802 15.352 64.6527 14.928ZM54.7777 8.87202C54.7493 8.78976 54.7138 8.69483 54.6711 8.61257C54.1805 7.57476 53.0786 7.00523 51.9269 7.10015C50.7396 7.19507 49.3817 7.73296 48.7632 8.77077C48.2584 9.61241 48.3011 10.7515 48.7277 11.6121C49.1116 12.4031 49.9007 12.9537 49.4102 13.9092C48.948 14.7951 48.2869 15.8203 48.4148 16.8581C48.5926 18.3073 52.133 18.0668 53.2137 17.9909C54.1521 17.9276 54.9484 16.8328 55.2825 16.0861C55.9437 14.6243 55.1616 14.5104 54.536 13.3587C54.2374 12.8144 54.4507 11.8083 54.6427 11.2577C54.927 10.4351 55.0763 9.68202 54.7777 8.87202Z" fill="#78A3AD"/>
</g>
<defs>
<clipPath id="clip0_215_9482">
<rect width="91" height="81" fill="white"/>
</clipPath>
</defs>
</svg>
