<svg width="32" height="30" viewBox="0 0 32 30" fill="none" xmlns="http://www.w3.org/2000/svg">
<path d="M16 0C18.1217 0 20.1566 0.790176 21.6569 2.1967C23.1571 3.60322 24 5.51088 24 7.5C24 9.48912 23.1571 11.3968 21.6569 12.8033C20.1566 14.2098 18.1217 15 16 15C13.8783 15 11.8434 14.2098 10.3431 12.8033C8.84285 11.3968 8 9.48912 8 7.5C8 5.51088 8.84285 3.60322 10.3431 2.1967C11.8434 0.790176 13.8783 0 16 0ZM16 18.75C24.84 18.75 32 22.1063 32 26.25V30H0V26.25C0 22.1063 7.16 18.75 16 18.75Z" fill="black"/>
</svg>
